<?xml version="1.0" encoding="UTF-8" standalone="no"?>
<!DOCTYPE svg PUBLIC "-//W3C//DTD SVG 1.1//EN"
 "http://www.w3.org/Graphics/SVG/1.1/DTD/svg11.dtd">
<!-- Generated by graphviz version 2.30.1 (20150306.0020)
 -->
<!-- Title: G Pages: 1 -->
<svg width="1222pt" height="580pt"
 viewBox="0.00 0.00 1222.00 580.00" xmlns="http://www.w3.org/2000/svg" xmlns:xlink="http://www.w3.org/1999/xlink">
<g id="graph0" class="graph" transform="scale(1 1) rotate(0) translate(4 576)">
<title>G</title>
<polygon fill="white" stroke="white" points="-4,5 -4,-576 1219,-576 1219,5 -4,5"/>
<g id="clust1" class="cluster"><title>cluster_root</title>
<g id="a_clust1"><a xlink:title="eventq_index&#61;0&#10;full_system&#61;false&#10;sim_quantum&#61;0&#10;time_sync_enable&#61;false&#10;time_sync_period&#61;100000000000&#10;time_sync_spin_threshold&#61;100000000">
<path fill="#bab6ae" stroke="#000000" d="M20,-8C20,-8 1194,-8 1194,-8 1200,-8 1206,-14 1206,-20 1206,-20 1206,-552 1206,-552 1206,-558 1200,-564 1194,-564 1194,-564 20,-564 20,-564 14,-564 8,-558 8,-552 8,-552 8,-20 8,-20 8,-14 14,-8 20,-8"/>
<text text-anchor="middle" x="607" y="-548.8" font-family="Arial" font-size="14.00" fill="#000000">root </text>
<text text-anchor="middle" x="607" y="-533.8" font-family="Arial" font-size="14.00" fill="#000000">: Root</text>
</a>
</g>
</g>
<g id="clust2" class="cluster"><title>cluster_system</title>
<g id="a_clust2"><a xlink:title="boot_osflags&#61;a&#10;cache_line_size&#61;64&#10;clk_domain&#61;system.clk_domain&#10;default_p_state&#61;UNDEFINED&#10;eventq_index&#61;0&#10;exit_on_work_items&#61;false&#10;init_param&#61;0&#10;kernel&#61;&#10;kernel_addr_check&#61;true&#10;load_addr_mask&#61;1099511627775&#10;load_offset&#61;0&#10;mem_mode&#61;timing&#10;mem_ranges&#61;0:536870911:0:0:0:0&#10;memories&#61;system.mem_ctrls&#10;mmap_using_noreserve&#61;false&#10;multi_thread&#61;false&#10;num_work_ids&#61;16&#10;p_state_clk_gate_bins&#61;20&#10;p_state_clk_gate_max&#61;1000000000000&#10;p_state_clk_gate_min&#61;1000&#10;power_model&#61;Null&#10;readfile&#61;&#10;symbolfile&#61;&#10;thermal_components&#61;&#10;thermal_model&#61;Null&#10;work_begin_ckpt_count&#61;0&#10;work_begin_cpu_id_exit&#61;&#45;1&#10;work_begin_exit_count&#61;0&#10;work_cpus_ckpt_count&#61;0&#10;work_end_ckpt_count&#61;0&#10;work_end_exit_count&#61;0&#10;work_item_id&#61;&#45;1">
<path fill="#e4e7eb" stroke="#000000" d="M28,-16C28,-16 1186,-16 1186,-16 1192,-16 1198,-22 1198,-28 1198,-28 1198,-506 1198,-506 1198,-512 1192,-518 1186,-518 1186,-518 28,-518 28,-518 22,-518 16,-512 16,-506 16,-506 16,-28 16,-28 16,-22 22,-16 28,-16"/>
<text text-anchor="middle" x="607" y="-502.8" font-family="Arial" font-size="14.00" fill="#000000">system </text>
<text text-anchor="middle" x="607" y="-487.8" font-family="Arial" font-size="14.00" fill="#000000">: System</text>
</a>
</g>
</g>
<g id="clust3" class="cluster"><title>cluster_system_membus</title>
<g id="a_clust3"><a xlink:title="clk_domain&#61;system.clk_domain&#10;default_p_state&#61;UNDEFINED&#10;eventq_index&#61;0&#10;forward_latency&#61;4&#10;frontend_latency&#61;3&#10;p_state_clk_gate_bins&#61;20&#10;p_state_clk_gate_max&#61;1000000000000&#10;p_state_clk_gate_min&#61;1000&#10;point_of_coherency&#61;true&#10;power_model&#61;Null&#10;response_latency&#61;2&#10;snoop_filter&#61;system.membus.snoop_filter&#10;snoop_response_latency&#61;4&#10;system&#61;system&#10;use_default_range&#61;false&#10;width&#61;16">
<path fill="#6f798c" stroke="#000000" d="M553,-156C553,-156 677,-156 677,-156 683,-156 689,-162 689,-168 689,-168 689,-236 689,-236 689,-242 683,-248 677,-248 677,-248 553,-248 553,-248 547,-248 541,-242 541,-236 541,-236 541,-168 541,-168 541,-162 547,-156 553,-156"/>
<text text-anchor="middle" x="615" y="-232.8" font-family="Arial" font-size="14.00" fill="#000000">membus </text>
<text text-anchor="middle" x="615" y="-217.8" font-family="Arial" font-size="14.00" fill="#000000">: SystemXBar</text>
</a>
</g>
</g>
<g id="clust8" class="cluster"><title>cluster_system_mem_ctrls</title>
<g id="a_clust8"><a xlink:title="IDD0&#61;0.055000&#10;IDD02&#61;0.000000&#10;IDD2N&#61;0.032000&#10;IDD2N2&#61;0.000000&#10;IDD2P0&#61;0.000000&#10;IDD2P02&#61;0.000000&#10;IDD2P1&#61;0.032000&#10;IDD2P12&#61;0.000000&#10;IDD3N&#61;0.038000&#10;IDD3N2&#61;0.000000&#10;IDD3P0&#61;0.000000&#10;IDD3P02&#61;0.000000&#10;IDD3P1&#61;0.038000&#10;IDD3P12&#61;0.000000&#10;IDD4R&#61;0.157000&#10;IDD4R2&#61;0.000000&#10;IDD4W&#61;0.125000&#10;IDD4W2&#61;0.000000&#10;IDD5&#61;0.235000&#10;IDD52&#61;0.000000&#10;IDD6&#61;0.020000&#10;IDD62&#61;0.000000&#10;VDD&#61;1.500000&#10;VDD2&#61;0.000000&#10;activation_limit&#61;4&#10;addr_mapping&#61;RoRaBaCoCh&#10;bank_groups_per_rank&#61;0&#10;banks_per_rank&#61;8&#10;burst_length&#61;8&#10;channels&#61;1&#10;clk_domain&#61;system.clk_domain&#10;conf_table_reported&#61;true&#10;default_p_state&#61;UNDEFINED&#10;device_bus_width&#61;8&#10;device_rowbuffer_size&#61;1024&#10;device_size&#61;536870912&#10;devices_per_rank&#61;8&#10;dll&#61;true&#10;eventq_index&#61;0&#10;in_addr_map&#61;true&#10;kvm_map&#61;true&#10;max_accesses_per_row&#61;16&#10;mem_sched_policy&#61;frfcfs&#10;min_writes_per_switch&#61;16&#10;null&#61;false&#10;p_state_clk_gate_bins&#61;20&#10;p_state_clk_gate_max&#61;1000000000000&#10;p_state_clk_gate_min&#61;1000&#10;page_policy&#61;open_adaptive&#10;power_model&#61;Null&#10;range&#61;0:536870911:6:19:0:0&#10;ranks_per_channel&#61;2&#10;read_buffer_size&#61;32&#10;static_backend_latency&#61;10000&#10;static_frontend_latency&#61;10000&#10;tBURST&#61;5000&#10;tCCD_L&#61;0&#10;tCK&#61;1250&#10;tCL&#61;13750&#10;tCS&#61;2500&#10;tRAS&#61;35000&#10;tRCD&#61;13750&#10;tREFI&#61;7800000&#10;tRFC&#61;260000&#10;tRP&#61;13750&#10;tRRD&#61;6000&#10;tRRD_L&#61;0&#10;tRTP&#61;7500&#10;tRTW&#61;2500&#10;tWR&#61;15000&#10;tWTR&#61;7500&#10;tXAW&#61;30000&#10;tXP&#61;6000&#10;tXPDLL&#61;0&#10;tXS&#61;270000&#10;tXSDLL&#61;0&#10;write_buffer_size&#61;64&#10;write_high_thresh_perc&#61;85&#10;write_low_thresh_perc&#61;50">
<path fill="#5e5958" stroke="#000000" d="M595,-24C595,-24 708,-24 708,-24 714,-24 720,-30 720,-36 720,-36 720,-104 720,-104 720,-110 714,-116 708,-116 708,-116 595,-116 595,-116 589,-116 583,-110 583,-104 583,-104 583,-36 583,-36 583,-30 589,-24 595,-24"/>
<text text-anchor="middle" x="651.5" y="-100.8" font-family="Arial" font-size="14.00" fill="#000000">mem_ctrls </text>
<text text-anchor="middle" x="651.5" y="-85.8" font-family="Arial" font-size="14.00" fill="#000000">: DDR3_1600_8x8</text>
</a>
</g>
</g>
<g id="clust11" class="cluster"><title>cluster_system_cpu0</title>
<g id="a_clust11"><a xlink:title="branchPred&#61;Null&#10;checker&#61;Null&#10;clk_domain&#61;system.cpu_clk_domain&#10;cpu_id&#61;0&#10;default_p_state&#61;UNDEFINED&#10;do_checkpoint_insts&#61;true&#10;do_quiesce&#61;true&#10;do_statistics_insts&#61;true&#10;dstage2_mmu&#61;system.cpu0.dstage2_mmu&#10;dtb&#61;system.cpu0.dtb&#10;eventq_index&#61;0&#10;function_trace&#61;false&#10;function_trace_start&#61;0&#10;interrupts&#61;system.cpu0.interrupts&#10;isa&#61;system.cpu0.isa&#10;istage2_mmu&#61;system.cpu0.istage2_mmu&#10;itb&#61;system.cpu0.itb&#10;max_insts_all_threads&#61;0&#10;max_insts_any_thread&#61;0&#10;max_loads_all_threads&#61;0&#10;max_loads_any_thread&#61;0&#10;numThreads&#61;1&#10;p_state_clk_gate_bins&#61;20&#10;p_state_clk_gate_max&#61;1000000000000&#10;p_state_clk_gate_min&#61;1000&#10;power_model&#61;Null&#10;profile&#61;0&#10;progress_interval&#61;0&#10;simpoint_start_insts&#61;&#10;socket_id&#61;0&#10;switched_out&#61;false&#10;syscallRetryLatency&#61;10000&#10;system&#61;system&#10;tracer&#61;system.cpu0.tracer&#10;wait_for_remote_gdb&#61;false&#10;workload&#61;system.cpu0.workload">
<path fill="#bbc6d9" stroke="#000000" d="M676,-272C676,-272 1178,-272 1178,-272 1184,-272 1190,-278 1190,-284 1190,-284 1190,-460 1190,-460 1190,-466 1184,-472 1178,-472 1178,-472 676,-472 676,-472 670,-472 664,-466 664,-460 664,-460 664,-284 664,-284 664,-278 670,-272 676,-272"/>
<text text-anchor="middle" x="927" y="-456.8" font-family="Arial" font-size="14.00" fill="#000000">cpu0 </text>
<text text-anchor="middle" x="927" y="-441.8" font-family="Arial" font-size="14.00" fill="#000000">: TimingSimpleCPU</text>
</a>
</g>
</g>
<g id="clust13" class="cluster"><title>cluster_system_cpu0_dtb</title>
<g id="a_clust13"><a xlink:title="eventq_index&#61;0&#10;is_stage2&#61;false&#10;size&#61;64&#10;sys&#61;system&#10;walker&#61;system.cpu0.dtb.walker">
<path fill="#bab6ae" stroke="#000000" d="M1050,-280C1050,-280 1170,-280 1170,-280 1176,-280 1182,-286 1182,-292 1182,-292 1182,-414 1182,-414 1182,-420 1176,-426 1170,-426 1170,-426 1050,-426 1050,-426 1044,-426 1038,-420 1038,-414 1038,-414 1038,-292 1038,-292 1038,-286 1044,-280 1050,-280"/>
<text text-anchor="middle" x="1110" y="-410.8" font-family="Arial" font-size="14.00" fill="#000000">dtb </text>
<text text-anchor="middle" x="1110" y="-395.8" font-family="Arial" font-size="14.00" fill="#000000">: ArmTLB</text>
</a>
</g>
</g>
<g id="clust14" class="cluster"><title>cluster_system_cpu0_dtb_walker</title>
<g id="a_clust14"><a xlink:title="clk_domain&#61;system.cpu_clk_domain&#10;default_p_state&#61;UNDEFINED&#10;eventq_index&#61;0&#10;is_stage2&#61;false&#10;num_squash_per_cycle&#61;2&#10;p_state_clk_gate_bins&#61;20&#10;p_state_clk_gate_max&#61;1000000000000&#10;p_state_clk_gate_min&#61;1000&#10;power_model&#61;Null&#10;sys&#61;system">
<path fill="#9f9c95" stroke="#000000" d="M1058,-288C1058,-288 1162,-288 1162,-288 1168,-288 1174,-294 1174,-300 1174,-300 1174,-368 1174,-368 1174,-374 1168,-380 1162,-380 1162,-380 1058,-380 1058,-380 1052,-380 1046,-374 1046,-368 1046,-368 1046,-300 1046,-300 1046,-294 1052,-288 1058,-288"/>
<text text-anchor="middle" x="1110" y="-364.8" font-family="Arial" font-size="14.00" fill="#000000">walker </text>
<text text-anchor="middle" x="1110" y="-349.8" font-family="Arial" font-size="14.00" fill="#000000">: ArmTableWalker</text>
</a>
</g>
</g>
<g id="clust16" class="cluster"><title>cluster_system_cpu0_itb</title>
<g id="a_clust16"><a xlink:title="eventq_index&#61;0&#10;is_stage2&#61;false&#10;size&#61;64&#10;sys&#61;system&#10;walker&#61;system.cpu0.itb.walker">
<path fill="#bab6ae" stroke="#000000" d="M898,-280C898,-280 1018,-280 1018,-280 1024,-280 1030,-286 1030,-292 1030,-292 1030,-414 1030,-414 1030,-420 1024,-426 1018,-426 1018,-426 898,-426 898,-426 892,-426 886,-420 886,-414 886,-414 886,-292 886,-292 886,-286 892,-280 898,-280"/>
<text text-anchor="middle" x="958" y="-410.8" font-family="Arial" font-size="14.00" fill="#000000">itb </text>
<text text-anchor="middle" x="958" y="-395.8" font-family="Arial" font-size="14.00" fill="#000000">: ArmTLB</text>
</a>
</g>
</g>
<g id="clust17" class="cluster"><title>cluster_system_cpu0_itb_walker</title>
<g id="a_clust17"><a xlink:title="clk_domain&#61;system.cpu_clk_domain&#10;default_p_state&#61;UNDEFINED&#10;eventq_index&#61;0&#10;is_stage2&#61;false&#10;num_squash_per_cycle&#61;2&#10;p_state_clk_gate_bins&#61;20&#10;p_state_clk_gate_max&#61;1000000000000&#10;p_state_clk_gate_min&#61;1000&#10;power_model&#61;Null&#10;sys&#61;system">
<path fill="#9f9c95" stroke="#000000" d="M906,-288C906,-288 1010,-288 1010,-288 1016,-288 1022,-294 1022,-300 1022,-300 1022,-368 1022,-368 1022,-374 1016,-380 1010,-380 1010,-380 906,-380 906,-380 900,-380 894,-374 894,-368 894,-368 894,-300 894,-300 894,-294 900,-288 906,-288"/>
<text text-anchor="middle" x="958" y="-364.8" font-family="Arial" font-size="14.00" fill="#000000">walker </text>
<text text-anchor="middle" x="958" y="-349.8" font-family="Arial" font-size="14.00" fill="#000000">: ArmTableWalker</text>
</a>
</g>
</g>
<g id="clust26" class="cluster"><title>cluster_system_cpu1</title>
<g id="a_clust26"><a xlink:title="branchPred&#61;Null&#10;checker&#61;Null&#10;clk_domain&#61;system.cpu_clk_domain&#10;cpu_id&#61;1&#10;default_p_state&#61;UNDEFINED&#10;do_checkpoint_insts&#61;true&#10;do_quiesce&#61;true&#10;do_statistics_insts&#61;true&#10;dstage2_mmu&#61;system.cpu1.dstage2_mmu&#10;dtb&#61;system.cpu1.dtb&#10;eventq_index&#61;0&#10;function_trace&#61;false&#10;function_trace_start&#61;0&#10;interrupts&#61;system.cpu1.interrupts&#10;isa&#61;system.cpu1.isa&#10;istage2_mmu&#61;system.cpu1.istage2_mmu&#10;itb&#61;system.cpu1.itb&#10;max_insts_all_threads&#61;0&#10;max_insts_any_thread&#61;0&#10;max_loads_all_threads&#61;0&#10;max_loads_any_thread&#61;0&#10;numThreads&#61;1&#10;p_state_clk_gate_bins&#61;20&#10;p_state_clk_gate_max&#61;1000000000000&#10;p_state_clk_gate_min&#61;1000&#10;power_model&#61;Null&#10;profile&#61;0&#10;progress_interval&#61;0&#10;simpoint_start_insts&#61;&#10;socket_id&#61;0&#10;switched_out&#61;false&#10;syscallRetryLatency&#61;10000&#10;system&#61;system&#10;tracer&#61;system.cpu1.tracer&#10;wait_for_remote_gdb&#61;false&#10;workload&#61;system.cpu0.workload">
<path fill="#bbc6d9" stroke="#000000" d="M142,-272C142,-272 644,-272 644,-272 650,-272 656,-278 656,-284 656,-284 656,-460 656,-460 656,-466 650,-472 644,-472 644,-472 142,-472 142,-472 136,-472 130,-466 130,-460 130,-460 130,-284 130,-284 130,-278 136,-272 142,-272"/>
<text text-anchor="middle" x="393" y="-456.8" font-family="Arial" font-size="14.00" fill="#000000">cpu1 </text>
<text text-anchor="middle" x="393" y="-441.8" font-family="Arial" font-size="14.00" fill="#000000">: TimingSimpleCPU</text>
</a>
</g>
</g>
<g id="clust27" class="cluster"><title>cluster_system_cpu1_dtb</title>
<g id="a_clust27"><a xlink:title="eventq_index&#61;0&#10;is_stage2&#61;false&#10;size&#61;64&#10;sys&#61;system&#10;walker&#61;system.cpu1.dtb.walker">
<path fill="#bab6ae" stroke="#000000" d="M516,-280C516,-280 636,-280 636,-280 642,-280 648,-286 648,-292 648,-292 648,-414 648,-414 648,-420 642,-426 636,-426 636,-426 516,-426 516,-426 510,-426 504,-420 504,-414 504,-414 504,-292 504,-292 504,-286 510,-280 516,-280"/>
<text text-anchor="middle" x="576" y="-410.8" font-family="Arial" font-size="14.00" fill="#000000">dtb </text>
<text text-anchor="middle" x="576" y="-395.8" font-family="Arial" font-size="14.00" fill="#000000">: ArmTLB</text>
</a>
</g>
</g>
<g id="clust28" class="cluster"><title>cluster_system_cpu1_dtb_walker</title>
<g id="a_clust28"><a xlink:title="clk_domain&#61;system.cpu_clk_domain&#10;default_p_state&#61;UNDEFINED&#10;eventq_index&#61;0&#10;is_stage2&#61;false&#10;num_squash_per_cycle&#61;2&#10;p_state_clk_gate_bins&#61;20&#10;p_state_clk_gate_max&#61;1000000000000&#10;p_state_clk_gate_min&#61;1000&#10;power_model&#61;Null&#10;sys&#61;system">
<path fill="#9f9c95" stroke="#000000" d="M524,-288C524,-288 628,-288 628,-288 634,-288 640,-294 640,-300 640,-300 640,-368 640,-368 640,-374 634,-380 628,-380 628,-380 524,-380 524,-380 518,-380 512,-374 512,-368 512,-368 512,-300 512,-300 512,-294 518,-288 524,-288"/>
<text text-anchor="middle" x="576" y="-364.8" font-family="Arial" font-size="14.00" fill="#000000">walker </text>
<text text-anchor="middle" x="576" y="-349.8" font-family="Arial" font-size="14.00" fill="#000000">: ArmTableWalker</text>
</a>
</g>
</g>
<g id="clust30" class="cluster"><title>cluster_system_cpu1_itb</title>
<g id="a_clust30"><a xlink:title="eventq_index&#61;0&#10;is_stage2&#61;false&#10;size&#61;64&#10;sys&#61;system&#10;walker&#61;system.cpu1.itb.walker">
<path fill="#bab6ae" stroke="#000000" d="M364,-280C364,-280 484,-280 484,-280 490,-280 496,-286 496,-292 496,-292 496,-414 496,-414 496,-420 490,-426 484,-426 484,-426 364,-426 364,-426 358,-426 352,-420 352,-414 352,-414 352,-292 352,-292 352,-286 358,-280 364,-280"/>
<text text-anchor="middle" x="424" y="-410.8" font-family="Arial" font-size="14.00" fill="#000000">itb </text>
<text text-anchor="middle" x="424" y="-395.8" font-family="Arial" font-size="14.00" fill="#000000">: ArmTLB</text>
</a>
</g>
</g>
<g id="clust31" class="cluster"><title>cluster_system_cpu1_itb_walker</title>
<g id="a_clust31"><a xlink:title="clk_domain&#61;system.cpu_clk_domain&#10;default_p_state&#61;UNDEFINED&#10;eventq_index&#61;0&#10;is_stage2&#61;false&#10;num_squash_per_cycle&#61;2&#10;p_state_clk_gate_bins&#61;20&#10;p_state_clk_gate_max&#61;1000000000000&#10;p_state_clk_gate_min&#61;1000&#10;power_model&#61;Null&#10;sys&#61;system">
<path fill="#9f9c95" stroke="#000000" d="M372,-288C372,-288 476,-288 476,-288 482,-288 488,-294 488,-300 488,-300 488,-368 488,-368 488,-374 482,-380 476,-380 476,-380 372,-380 372,-380 366,-380 360,-374 360,-368 360,-368 360,-300 360,-300 360,-294 366,-288 372,-288"/>
<text text-anchor="middle" x="424" y="-364.8" font-family="Arial" font-size="14.00" fill="#000000">walker </text>
<text text-anchor="middle" x="424" y="-349.8" font-family="Arial" font-size="14.00" fill="#000000">: ArmTableWalker</text>
</a>
</g>
</g>
<!-- system_system_port -->
<g id="node1" class="node"><title>system_system_port</title>
<path fill="#b6b8bc" stroke="#000000" d="M36.5,-297C36.5,-297 107.5,-297 107.5,-297 113.5,-297 119.5,-303 119.5,-309 119.5,-309 119.5,-321 119.5,-321 119.5,-327 113.5,-333 107.5,-333 107.5,-333 36.5,-333 36.5,-333 30.5,-333 24.5,-327 24.5,-321 24.5,-321 24.5,-309 24.5,-309 24.5,-303 30.5,-297 36.5,-297"/>
<text text-anchor="middle" x="72" y="-311.3" font-family="Arial" font-size="14.00" fill="#000000">system_port</text>
</g>
<!-- system_membus_slave -->
<g id="node3" class="node"><title>system_membus_slave</title>
<path fill="#586070" stroke="#000000" d="M561,-165C561,-165 591,-165 591,-165 597,-165 603,-171 603,-177 603,-177 603,-189 603,-189 603,-195 597,-201 591,-201 591,-201 561,-201 561,-201 555,-201 549,-195 549,-189 549,-189 549,-177 549,-177 549,-171 555,-165 561,-165"/>
<text text-anchor="middle" x="576" y="-179.3" font-family="Arial" font-size="14.00" fill="#000000">slave</text>
</g>
<!-- system_system_port&#45;&gt;system_membus_slave -->
<g id="edge1" class="edge"><title>system_system_port&#45;&gt;system_membus_slave</title>
<path fill="none" stroke="black" d="M89.5737,-296.882C99.5072,-288.145 112.596,-278.1 126,-272 269.19,-206.835 459.479,-189.838 538.814,-185.475"/>
<polygon fill="black" stroke="black" points="539.008,-188.97 548.815,-184.961 538.648,-181.979 539.008,-188.97"/>
</g>
<!-- system_membus_master -->
<g id="node2" class="node"><title>system_membus_master</title>
<path fill="#586070" stroke="#000000" d="M633,-165C633,-165 669,-165 669,-165 675,-165 681,-171 681,-177 681,-177 681,-189 681,-189 681,-195 675,-201 669,-201 669,-201 633,-201 633,-201 627,-201 621,-195 621,-189 621,-189 621,-177 621,-177 621,-171 627,-165 633,-165"/>
<text text-anchor="middle" x="651" y="-179.3" font-family="Arial" font-size="14.00" fill="#000000">master</text>
</g>
<!-- system_mem_ctrls_port -->
<g id="node4" class="node"><title>system_mem_ctrls_port</title>
<path fill="#4b4746" stroke="#000000" d="M636,-33C636,-33 666,-33 666,-33 672,-33 678,-39 678,-45 678,-45 678,-57 678,-57 678,-63 672,-69 666,-69 666,-69 636,-69 636,-69 630,-69 624,-63 624,-57 624,-57 624,-45 624,-45 624,-39 630,-33 636,-33"/>
<text text-anchor="middle" x="651" y="-47.3" font-family="Arial" font-size="14.00" fill="#000000">port</text>
</g>
<!-- system_membus_master&#45;&gt;system_mem_ctrls_port -->
<g id="edge2" class="edge"><title>system_membus_master&#45;&gt;system_mem_ctrls_port</title>
<path fill="none" stroke="black" d="M651,-164.737C651,-142.981 651,-105.322 651,-79.5641"/>
<polygon fill="black" stroke="black" points="654.5,-79.3344 651,-69.3344 647.5,-79.3344 654.5,-79.3344"/>
</g>
<!-- system_cpu0_icache_port -->
<g id="node5" class="node"><title>system_cpu0_icache_port</title>
<path fill="#959ead" stroke="#000000" d="M798.5,-297C798.5,-297 865.5,-297 865.5,-297 871.5,-297 877.5,-303 877.5,-309 877.5,-309 877.5,-321 877.5,-321 877.5,-327 871.5,-333 865.5,-333 865.5,-333 798.5,-333 798.5,-333 792.5,-333 786.5,-327 786.5,-321 786.5,-321 786.5,-309 786.5,-309 786.5,-303 792.5,-297 798.5,-297"/>
<text text-anchor="middle" x="832" y="-311.3" font-family="Arial" font-size="14.00" fill="#000000">icache_port</text>
</g>
<!-- system_cpu0_icache_port&#45;&gt;system_membus_slave -->
<g id="edge3" class="edge"><title>system_cpu0_icache_port&#45;&gt;system_membus_slave</title>
<path fill="none" stroke="black" d="M814.164,-296.625C804.065,-287.813 790.732,-277.778 777,-272 708.696,-243.258 673.102,-289.93 612,-248 599.101,-239.148 590.296,-224.076 584.624,-210.781"/>
<polygon fill="black" stroke="black" points="587.75,-209.161 580.882,-201.094 581.22,-211.683 587.75,-209.161"/>
</g>
<!-- system_cpu0_dcache_port -->
<g id="node6" class="node"><title>system_cpu0_dcache_port</title>
<path fill="#959ead" stroke="#000000" d="M684,-297C684,-297 756,-297 756,-297 762,-297 768,-303 768,-309 768,-309 768,-321 768,-321 768,-327 762,-333 756,-333 756,-333 684,-333 684,-333 678,-333 672,-327 672,-321 672,-321 672,-309 672,-309 672,-303 678,-297 684,-297"/>
<text text-anchor="middle" x="720" y="-311.3" font-family="Arial" font-size="14.00" fill="#000000">dcache_port</text>
</g>
<!-- system_cpu0_dcache_port&#45;&gt;system_membus_slave -->
<g id="edge4" class="edge"><title>system_cpu0_dcache_port&#45;&gt;system_membus_slave</title>
<path fill="none" stroke="black" d="M688.087,-296.864C660.681,-281.728 623.784,-260.218 612,-248 601.595,-237.212 593.154,-222.834 587.068,-210.439"/>
<polygon fill="black" stroke="black" points="590.085,-208.626 582.699,-201.03 583.736,-211.574 590.085,-208.626"/>
</g>
<!-- system_cpu0_dtb_walker_port -->
<g id="node7" class="node"><title>system_cpu0_dtb_walker_port</title>
<path fill="#7f7c77" stroke="#000000" d="M1066,-297C1066,-297 1096,-297 1096,-297 1102,-297 1108,-303 1108,-309 1108,-309 1108,-321 1108,-321 1108,-327 1102,-333 1096,-333 1096,-333 1066,-333 1066,-333 1060,-333 1054,-327 1054,-321 1054,-321 1054,-309 1054,-309 1054,-303 1060,-297 1066,-297"/>
<text text-anchor="middle" x="1081" y="-311.3" font-family="Arial" font-size="14.00" fill="#000000">port</text>
</g>
<!-- system_cpu0_dtb_walker_port&#45;&gt;system_membus_slave -->
<g id="edge5" class="edge"><title>system_cpu0_dtb_walker_port&#45;&gt;system_membus_slave</title>
<path fill="none" stroke="black" d="M1063.84,-296.579C1053.74,-287.519 1040.19,-277.262 1026,-272 939.593,-239.965 690.168,-296.807 612,-248 598.513,-239.579 589.622,-224.171 584.051,-210.584"/>
<polygon fill="black" stroke="black" points="587.31,-209.306 580.562,-201.138 580.744,-211.732 587.31,-209.306"/>
</g>
<!-- system_cpu0_itb_walker_port -->
<g id="node8" class="node"><title>system_cpu0_itb_walker_port</title>
<path fill="#7f7c77" stroke="#000000" d="M914,-297C914,-297 944,-297 944,-297 950,-297 956,-303 956,-309 956,-309 956,-321 956,-321 956,-327 950,-333 944,-333 944,-333 914,-333 914,-333 908,-333 902,-327 902,-321 902,-321 902,-309 902,-309 902,-303 908,-297 914,-297"/>
<text text-anchor="middle" x="929" y="-311.3" font-family="Arial" font-size="14.00" fill="#000000">port</text>
</g>
<!-- system_cpu0_itb_walker_port&#45;&gt;system_membus_slave -->
<g id="edge6" class="edge"><title>system_cpu0_itb_walker_port&#45;&gt;system_membus_slave</title>
<path fill="none" stroke="black" d="M920.849,-296.815C915.635,-287.829 907.97,-277.568 898,-272 842.317,-240.901 665.659,-282.474 612,-248 598.622,-239.405 589.735,-223.993 584.137,-210.447"/>
<polygon fill="black" stroke="black" points="587.401,-209.183 580.626,-201.038 580.843,-211.63 587.401,-209.183"/>
</g>
<!-- system_cpu1_icache_port -->
<g id="node9" class="node"><title>system_cpu1_icache_port</title>
<path fill="#959ead" stroke="#000000" d="M264.5,-297C264.5,-297 331.5,-297 331.5,-297 337.5,-297 343.5,-303 343.5,-309 343.5,-309 343.5,-321 343.5,-321 343.5,-327 337.5,-333 331.5,-333 331.5,-333 264.5,-333 264.5,-333 258.5,-333 252.5,-327 252.5,-321 252.5,-321 252.5,-309 252.5,-309 252.5,-303 258.5,-297 264.5,-297"/>
<text text-anchor="middle" x="298" y="-311.3" font-family="Arial" font-size="14.00" fill="#000000">icache_port</text>
</g>
<!-- system_cpu1_icache_port&#45;&gt;system_membus_slave -->
<g id="edge7" class="edge"><title>system_cpu1_icache_port&#45;&gt;system_membus_slave</title>
<path fill="none" stroke="black" d="M318.921,-296.923C329.599,-288.717 343.042,-279.14 356,-272 417.465,-238.132 494.708,-210.323 539.405,-195.539"/>
<polygon fill="black" stroke="black" points="540.551,-198.847 548.967,-192.411 538.375,-192.193 540.551,-198.847"/>
</g>
<!-- system_cpu1_dcache_port -->
<g id="node10" class="node"><title>system_cpu1_dcache_port</title>
<path fill="#959ead" stroke="#000000" d="M150,-297C150,-297 222,-297 222,-297 228,-297 234,-303 234,-309 234,-309 234,-321 234,-321 234,-327 228,-333 222,-333 222,-333 150,-333 150,-333 144,-333 138,-327 138,-321 138,-321 138,-309 138,-309 138,-303 144,-297 150,-297"/>
<text text-anchor="middle" x="186" y="-311.3" font-family="Arial" font-size="14.00" fill="#000000">dcache_port</text>
</g>
<!-- system_cpu1_dcache_port&#45;&gt;system_membus_slave -->
<g id="edge8" class="edge"><title>system_cpu1_dcache_port&#45;&gt;system_membus_slave</title>
<path fill="none" stroke="black" d="M205.774,-296.868C216.481,-288.344 230.296,-278.5 244,-272 344.792,-224.189 475.578,-199.26 538.688,-189.304"/>
<polygon fill="black" stroke="black" points="539.232,-192.761 548.582,-187.779 538.165,-185.843 539.232,-192.761"/>
</g>
<!-- system_cpu1_dtb_walker_port -->
<g id="node11" class="node"><title>system_cpu1_dtb_walker_port</title>
<path fill="#7f7c77" stroke="#000000" d="M561,-297C561,-297 591,-297 591,-297 597,-297 603,-303 603,-309 603,-309 603,-321 603,-321 603,-327 597,-333 591,-333 591,-333 561,-333 561,-333 555,-333 549,-327 549,-321 549,-321 549,-309 549,-309 549,-303 555,-297 561,-297"/>
<text text-anchor="middle" x="576" y="-311.3" font-family="Arial" font-size="14.00" fill="#000000">port</text>
</g>
<!-- system_cpu1_dtb_walker_port&#45;&gt;system_membus_slave -->
<g id="edge9" class="edge"><title>system_cpu1_dtb_walker_port&#45;&gt;system_membus_slave</title>
<path fill="none" stroke="black" d="M576,-296.737C576,-274.981 576,-237.322 576,-211.564"/>
<polygon fill="black" stroke="black" points="579.5,-211.334 576,-201.334 572.5,-211.334 579.5,-211.334"/>
</g>
<!-- system_cpu1_itb_walker_port -->
<g id="node12" class="node"><title>system_cpu1_itb_walker_port</title>
<path fill="#7f7c77" stroke="#000000" d="M438,-297C438,-297 468,-297 468,-297 474,-297 480,-303 480,-309 480,-309 480,-321 480,-321 480,-327 474,-333 468,-333 468,-333 438,-333 438,-333 432,-333 426,-327 426,-321 426,-321 426,-309 426,-309 426,-303 432,-297 438,-297"/>
<text text-anchor="middle" x="453" y="-311.3" font-family="Arial" font-size="14.00" fill="#000000">port</text>
</g>
<!-- system_cpu1_itb_walker_port&#45;&gt;system_membus_slave -->
<g id="edge10" class="edge"><title>system_cpu1_itb_walker_port&#45;&gt;system_membus_slave</title>
<path fill="none" stroke="black" d="M469.333,-296.737C490.653,-274.204 528.113,-234.612 552.487,-208.851"/>
<polygon fill="black" stroke="black" points="555.269,-211.004 559.599,-201.334 550.184,-206.193 555.269,-211.004"/>
</g>
</g>
</svg>
